<svg width="542" height="548" viewBox="0 0 542 548" fill="none" xmlns="http://www.w3.org/2000/svg">
<g clip-path="url(#clip0_420_308)">
<path d="M542 0H0V548H542V0Z" fill="#005D9F"/>
<g filter="url(#filter0_f_420_308)">
<path d="M86.7199 454.84C205.457 454.84 301.713 308.858 301.713 128.78C301.713 -51.298 205.457 -197.28 86.7199 -197.28C-32.0176 -197.28 -128.273 -51.298 -128.273 128.78C-128.273 308.858 -32.0176 454.84 86.7199 454.84Z" fill="#06315F"/>
<path d="M384.218 390.907C502.955 390.907 599.211 244.925 599.211 64.8467C599.211 -115.231 502.955 -261.213 384.218 -261.213C265.48 -261.213 169.224 -115.231 169.224 64.8467C169.224 244.925 265.48 390.907 384.218 390.907Z" fill="#005D9F"/>
<path d="M305.327 575.4C424.064 575.4 520.32 429.418 520.32 249.34C520.32 69.2621 424.064 -76.72 305.327 -76.72C186.589 -76.72 90.3333 69.2621 90.3333 249.34C90.3333 429.418 186.589 575.4 305.327 575.4Z" fill="#06315F"/>
<path d="M86.7199 655.773C205.457 655.773 301.713 509.791 301.713 329.713C301.713 149.635 205.457 3.65332 86.7199 3.65332C-32.0176 3.65332 -128.273 149.635 -128.273 329.713C-128.273 509.791 -32.0176 655.773 86.7199 655.773Z" fill="#06315F"/>
<path d="M485.993 738.887C604.731 738.887 700.987 592.905 700.987 412.827C700.987 232.749 604.731 86.7667 485.993 86.7667C367.256 86.7667 271 232.749 271 412.827C271 592.905 367.256 738.887 485.993 738.887Z" fill="#005D9F"/>
<path d="M518.513 552.567C637.251 552.567 733.507 406.585 733.507 226.507C733.507 46.4287 637.251 -99.5533 518.513 -99.5533C399.776 -99.5533 303.52 46.4287 303.52 226.507C303.52 406.585 399.776 552.567 518.513 552.567Z" fill="#06315F"/>
</g>
</g>
<defs>
<filter id="filter0_f_420_308" x="-450.273" y="-583.213" width="1505.78" height="1644.1" filterUnits="userSpaceOnUse" color-interpolation-filters="sRGB">
<feFlood flood-opacity="0" result="BackgroundImageFix"/>
<feBlend mode="normal" in="SourceGraphic" in2="BackgroundImageFix" result="shape"/>
<feGaussianBlur stdDeviation="161" result="effect1_foregroundBlur_420_308"/>
</filter>
<clipPath id="clip0_420_308">
<rect width="542" height="548" fill="white"/>
</clipPath>
</defs>
</svg>
