<svg width="500" height="500" viewBox="0 0 500 500" fill="none" xmlns="http://www.w3.org/2000/svg">
<g clip-path="url(#clip0_807_993)">
<path d="M500 0H0V500H500V0Z" fill="#6567D8"/>
<g filter="url(#filter0_f_807_993)">
<path d="M79.9998 415C189.536 415 278.333 281.805 278.333 117.5C278.333 -46.8047 189.536 -180 79.9998 -180C-29.5366 -180 -118.333 -46.8047 -118.333 117.5C-118.333 281.805 -29.5366 415 79.9998 415Z" fill="#323363"/>
<path d="M354.444 356.667C463.981 356.667 552.777 223.471 552.777 59.1666C552.777 -105.138 463.981 -238.333 354.444 -238.333C244.908 -238.333 156.111 -105.138 156.111 59.1666C156.111 223.471 244.908 356.667 354.444 356.667Z" fill="#6567D8"/>
<path d="M281.666 525C391.203 525 480 391.805 480 227.5C480 63.1953 391.203 -70 281.666 -70C172.13 -70 83.333 63.1953 83.333 227.5C83.333 391.805 172.13 525 281.666 525Z" fill="#323363"/>
<path d="M79.9998 598.333C189.536 598.333 278.333 465.138 278.333 300.833C278.333 136.529 189.536 3.33325 79.9998 3.33325C-29.5366 3.33325 -118.333 136.529 -118.333 300.833C-118.333 465.138 -29.5366 598.333 79.9998 598.333Z" fill="#323363"/>
<path d="M448.333 674.167C557.87 674.167 646.667 540.971 646.667 376.667C646.667 212.362 557.87 79.1666 448.333 79.1666C338.797 79.1666 250 212.362 250 376.667C250 540.971 338.797 674.167 448.333 674.167Z" fill="#6567D8"/>
<path d="M478.333 504.167C587.87 504.167 676.667 370.971 676.667 206.667C676.667 42.3619 587.87 -90.8334 478.333 -90.8334C368.797 -90.8334 280 42.3619 280 206.667C280 370.971 368.797 504.167 478.333 504.167Z" fill="#323363"/>
</g>
</g>
<defs>
<filter id="filter0_f_807_993" x="-440.333" y="-560.333" width="1439" height="1556.5" filterUnits="userSpaceOnUse" color-interpolation-filters="sRGB">
<feFlood flood-opacity="0" result="BackgroundImageFix"/>
<feBlend mode="normal" in="SourceGraphic" in2="BackgroundImageFix" result="shape"/>
<feGaussianBlur stdDeviation="161" result="effect1_foregroundBlur_807_993"/>
</filter>
<clipPath id="clip0_807_993">
<rect width="500" height="500" fill="white"/>
</clipPath>
</defs>
</svg>
